
<svg version="1.1" preserveAspectRatio="none" xmlns="http://www.w3.org/2000/svg" width="500" height="500" viewBox="0 0 500 500"><rect width="100%" height="100%" fill="#F3F4F6" fill-opacity="1"/><svg viewBox="129.9345 324.4903 385.0418 110" width="333" height="95.13252846833771" x="83.5px" y="202.4337px" xmlns="http://www.w3.org/2000/svg" xmlns:xlink="http://www.w3.org/1999/xlink" preserveAspectRatio="none"><defs></defs><style>.companyName {fill:#1e1e1e;fill-opacity:1;}.icon1 {fill:#EB3F3F;fill-opacity:1;}.icon3-str {stroke:#848383;stroke-opacity:1;}.shapeStroke-str {stroke:#1e1e1e;stroke-opacity:1;}</style><g opacity="1" transform="rotate(0 129.9345 364.4903)">
<svg width="385.0418" height="70" x="129.9345" y="364.4903" version="1.1" preserveAspectRatio="none" viewBox="2.28 -32.84 182.84 33.24">
  <g transform="matrix(1 0 0 1 0 0)" class="companyName"><path id="id-D6z1nYkh8" d="M2.28 0L2.28-28L11.72-28L11.72-7.32L24.36-7.32L24.36 0L2.28 0Z M49.72-20.88L36.40-20.88L36.40-16.08L48.08-16.08L48.08-8.96L36.40-8.96L36.40 0L26.96 0L26.96-28L49.72-28L49.72-20.88Z M59 0L59-20.68L50.80-20.68L50.80-28L76.64-28L76.64-20.68L68.44-20.68L68.44 0L59 0Z M107.84 0L103.08-7.04L100.52-7.04L100.52 0L91.08 0L91.08-28L104.56-28Q108.44-28 111.32-26.72Q114.20-25.44 115.76-23.04Q117.32-20.64 117.32-17.44L117.32-17.44Q117.32-14.44 115.96-12.20Q114.60-9.96 112.04-8.64L112.04-8.64L117.92 0L107.84 0ZM107.80-17.44Q107.80-19 106.84-19.86Q105.88-20.72 103.96-20.72L103.96-20.72L100.52-20.72L100.52-14.16L103.96-14.16Q105.88-14.16 106.84-15.02Q107.80-15.88 107.80-17.44L107.80-17.44Z M120.60 0L120.60-21.88L129.64-21.88L129.64 0L120.60 0ZM125.12-23.64Q122.68-23.64 121.18-24.94Q119.68-26.24 119.68-28.24L119.68-28.24Q119.68-30.24 121.18-31.54Q122.68-32.84 125.12-32.84L125.12-32.84Q127.60-32.84 129.08-31.60Q130.56-30.36 130.56-28.40L130.56-28.40Q130.56-26.32 129.08-24.98Q127.60-23.64 125.12-23.64L125.12-23.64Z M148.80-29.68L157.84-29.68L157.84 0L149.24 0L149.24-1.80Q147.28 0.40 143.24 0.40L143.24 0.40Q140.36 0.40 137.94-0.98Q135.52-2.36 134.10-4.96Q132.68-7.56 132.68-10.96L132.68-10.96Q132.68-14.36 134.10-16.94Q135.52-19.52 137.94-20.90Q140.36-22.28 143.24-22.28L143.24-22.28Q146.88-22.28 148.80-20.40L148.80-20.40L148.80-29.68ZM145.40-6.64Q146.96-6.64 147.96-7.78Q148.96-8.92 148.96-10.96L148.96-10.96Q148.96-13 147.96-14.12Q146.96-15.24 145.40-15.24L145.40-15.24Q143.84-15.24 142.84-14.12Q141.84-13 141.84-10.96L141.84-10.96Q141.84-8.92 142.84-7.78Q143.84-6.64 145.40-6.64L145.40-6.64Z M185.12-10.96Q185.12-10.76 185.00-8.84L185.00-8.84L169.80-8.84Q170.28-7.60 171.40-6.94Q172.52-6.28 174.20-6.28L174.20-6.28Q175.64-6.28 176.62-6.64Q177.60-7 178.76-7.88L178.76-7.88L183.48-3.12Q180.28 0.40 173.92 0.40L173.92 0.40Q169.96 0.40 166.96-1.06Q163.96-2.52 162.32-5.12Q160.68-7.72 160.68-10.96L160.68-10.96Q160.68-14.24 162.30-16.82Q163.92-19.40 166.74-20.84Q169.56-22.28 173.08-22.28L173.08-22.28Q176.40-22.28 179.14-20.96Q181.88-19.64 183.50-17.08Q185.12-14.52 185.12-10.96L185.12-10.96ZM173.16-16.12Q171.76-16.12 170.84-15.36Q169.92-14.60 169.64-13.20L169.64-13.20L176.68-13.20Q176.40-14.56 175.48-15.34Q174.56-16.12 173.16-16.12L173.16-16.12Z"/></g>
</svg>
</g><g opacity="1" transform="rotate(0 129.9345 324.4903)">
<svg width="130.0001" height="22" x="129.9345" y="324.4903" version="1.1" preserveAspectRatio="none" viewBox="0 0 130.0001 22">
  <defs><rect x="0" y="0" width="130.0001" height="22" rx="0%" ry="0%" id="id-bTUYkkdP1691849550296"></rect></defs><use class="icon1 shapeStroke-str" style="stroke-width:0;" xlink:href="#id-bTUYkkdP1691849550296"></use>
</svg>
</g></svg></svg>
